<svg width="48" height="52" viewBox="0 0 48 52" fill="none" xmlns="http://www.w3.org/2000/svg">
<path d="M15.8523 12.1193C15.2898 12.1193 14.7884 12.0227 14.348 11.8295C13.9105 11.6364 13.5625 11.3679 13.304 11.0241C13.0483 10.6776 12.9091 10.2756 12.8864 9.81818H13.9602C13.983 10.0994 14.0795 10.3423 14.25 10.5469C14.4205 10.7486 14.6435 10.9048 14.919 11.0156C15.1946 11.1264 15.5 11.1818 15.8352 11.1818C16.2102 11.1818 16.5426 11.1165 16.8324 10.9858C17.1222 10.8551 17.3494 10.6733 17.5142 10.4403C17.679 10.2074 17.7614 9.9375 17.7614 9.63068C17.7614 9.30966 17.6818 9.02699 17.5227 8.78267C17.3636 8.53551 17.1307 8.34233 16.8239 8.20312C16.517 8.06392 16.142 7.99432 15.6989 7.99432H15V7.05682H15.6989C16.0455 7.05682 16.3494 6.99432 16.6108 6.86932C16.875 6.74432 17.081 6.56818 17.2287 6.34091C17.3793 6.11364 17.4545 5.84659 17.4545 5.53977C17.4545 5.24432 17.3892 4.98722 17.2585 4.76847C17.1278 4.54972 16.9432 4.37926 16.7045 4.2571C16.4688 4.13494 16.1903 4.07386 15.8693 4.07386C15.5682 4.07386 15.2841 4.12926 15.017 4.24006C14.7528 4.34801 14.5369 4.50568 14.3693 4.71307C14.2017 4.91761 14.1108 5.16477 14.0966 5.45455H13.0739C13.0909 4.99716 13.2287 4.59659 13.4872 4.25284C13.7457 3.90625 14.0838 3.63636 14.5014 3.44318C14.9219 3.25 15.3835 3.15341 15.8864 3.15341C16.4261 3.15341 16.8892 3.26278 17.2756 3.48153C17.6619 3.69744 17.9588 3.98295 18.1662 4.33807C18.3736 4.69318 18.4773 5.0767 18.4773 5.48864C18.4773 5.98011 18.348 6.39915 18.0895 6.74574C17.8338 7.09233 17.4858 7.33239 17.0455 7.46591V7.53409C17.5966 7.625 18.027 7.85937 18.3366 8.23722C18.6463 8.61222 18.8011 9.0767 18.8011 9.63068C18.8011 10.1051 18.6719 10.5312 18.4134 10.9091C18.1577 11.2841 17.8082 11.5795 17.3651 11.7955C16.9219 12.0114 16.4176 12.1193 15.8523 12.1193ZM23.4418 12.1193C23.0838 12.1136 22.7259 12.0455 22.3679 11.9148C22.0099 11.7841 21.6832 11.5639 21.3878 11.2543C21.0923 10.9418 20.8551 10.5199 20.6761 9.98864C20.4972 9.45455 20.4077 8.78409 20.4077 7.97727C20.4077 7.20455 20.4801 6.51989 20.625 5.9233C20.7699 5.32386 20.9801 4.8196 21.2557 4.41051C21.5313 3.99858 21.8636 3.68608 22.2528 3.47301C22.6449 3.25994 23.0866 3.15341 23.5781 3.15341C24.0668 3.15341 24.5014 3.25142 24.8821 3.44744C25.2656 3.64062 25.5781 3.91051 25.8196 4.2571C26.0611 4.60369 26.2173 5.00284 26.2884 5.45455H25.2486C25.152 5.0625 24.9645 4.73722 24.6861 4.47869C24.4077 4.22017 24.0384 4.09091 23.5781 4.09091C22.902 4.09091 22.3693 4.38494 21.9801 4.97301C21.5938 5.56108 21.3991 6.38636 21.3963 7.44886H21.4645C21.6236 7.20739 21.8125 7.00142 22.0312 6.83097C22.2528 6.65767 22.4972 6.52415 22.7642 6.4304C23.0313 6.33665 23.3139 6.28977 23.6122 6.28977C24.1122 6.28977 24.5696 6.41477 24.9844 6.66477C25.3991 6.91193 25.7315 7.25426 25.9815 7.69176C26.2315 8.12642 26.3565 8.625 26.3565 9.1875C26.3565 9.72727 26.2358 10.2216 25.9943 10.6705C25.7528 11.1165 25.4134 11.4716 24.9759 11.7358C24.5412 11.9972 24.0298 12.125 23.4418 12.1193ZM23.4418 11.1818C23.7997 11.1818 24.1207 11.0923 24.4048 10.9134C24.6918 10.7344 24.9176 10.4943 25.0824 10.1932C25.25 9.89205 25.3338 9.55682 25.3338 9.1875C25.3338 8.8267 25.2528 8.49858 25.0909 8.20312C24.9318 7.90483 24.7116 7.66761 24.4304 7.49148C24.152 7.31534 23.8338 7.22727 23.4759 7.22727C23.206 7.22727 22.9545 7.28125 22.7216 7.3892C22.4886 7.49432 22.2841 7.6392 22.108 7.82386C21.9347 8.00852 21.7983 8.22017 21.6989 8.45881C21.5994 8.6946 21.5497 8.94318 21.5497 9.20455C21.5497 9.55114 21.6307 9.875 21.7926 10.1761C21.9574 10.4773 22.1818 10.7202 22.4659 10.9048C22.7528 11.0895 23.0781 11.1818 23.4418 11.1818ZM30.8789 12.1193C30.2369 12.1193 29.69 11.9446 29.2383 11.5952C28.7866 11.2429 28.4414 10.733 28.2028 10.0653C27.9641 9.39489 27.8448 8.58523 27.8448 7.63636C27.8448 6.69318 27.9641 5.88778 28.2028 5.22017C28.4442 4.54972 28.7908 4.03835 29.2425 3.68608C29.6971 3.33097 30.2425 3.15341 30.8789 3.15341C31.5153 3.15341 32.0593 3.33097 32.511 3.68608C32.9656 4.03835 33.3121 4.54972 33.5508 5.22017C33.7923 5.88778 33.913 6.69318 33.913 7.63636C33.913 8.58523 33.7937 9.39489 33.555 10.0653C33.3164 10.733 32.9712 11.2429 32.5195 11.5952C32.0678 11.9446 31.521 12.1193 30.8789 12.1193ZM30.8789 11.1818C31.5153 11.1818 32.0096 10.875 32.3619 10.2614C32.7141 9.64773 32.8903 8.77273 32.8903 7.63636C32.8903 6.88068 32.8093 6.23722 32.6474 5.70597C32.4883 5.17472 32.2582 4.76989 31.957 4.49148C31.6587 4.21307 31.2994 4.07386 30.8789 4.07386C30.2482 4.07386 29.7553 4.38494 29.4002 5.0071C29.0451 5.62642 28.8675 6.50284 28.8675 7.63636C28.8675 8.39205 28.9471 9.03409 29.1062 9.5625C29.2653 10.0909 29.494 10.4929 29.7923 10.7685C30.0934 11.044 30.4556 11.1818 30.8789 11.1818Z" fill="white"/>
<circle cx="37" cy="4" r="1.75" stroke="white" stroke-width="0.5"/>
<mask id="mask0_16_281" style="mask-type:alpha" maskUnits="userSpaceOnUse" x="0" y="4" width="48" height="48">
<rect y="4" width="48" height="48" fill="#D9D9D9"/>
</mask>
<g mask="url(#mask0_16_281)">
<path d="M17.427 42.477L15.796 40.846L20.046 36.5655C15.782 36.0655 12.2083 35.0455 9.325 33.5055C6.44167 31.9659 5 30.0564 5 27.777C5 25.413 6.84867 23.3829 10.546 21.6865C14.2437 19.9905 18.7283 19.1425 24 19.1425C29.2923 19.1425 33.782 19.9905 37.469 21.6865C41.1563 23.3829 43 25.413 43 27.777C43 29.4617 42.0198 30.9899 40.0595 32.3615C38.0992 33.7332 35.487 34.8037 32.223 35.573V33.131C34.864 32.477 36.9422 31.6264 38.4575 30.579C39.9728 29.5314 40.7305 28.5974 40.7305 27.777C40.7305 26.6717 39.3293 25.3345 36.527 23.7655C33.7243 22.1962 29.5487 21.4115 24 21.4115C18.4717 21.4115 14.3012 22.1962 11.4885 23.7655C8.67583 25.3345 7.2695 26.6717 7.2695 27.777C7.2695 29.1617 8.32717 30.418 10.4425 31.546C12.5578 32.6744 15.8283 33.6244 20.254 34.396L15.796 30L17.427 28.369L24.4805 35.3925L17.427 42.477Z" fill="white"/>
</g>
</svg>
